<svg xmlns="http://www.w3.org/2000/svg" viewBox="0 0 180 260">
  <path d="M59 96 77 89q13 19 26 0l18 7q12 4 20 20l7 20q2 9-7 13l-12 1-3 34q-36 15-72 0l-3-34-12-1q-9-4-7-13l7-20q8-16 20-20z" fill="#425a78" stroke="#202d40" stroke-width="5" stroke-linejoin="round"/>
  <path d="M65 99h50l-8 92-17-9-17 9z" fill="#d6c793" stroke="#51472d" stroke-width="5" stroke-linejoin="round"/>
  <path d="M81 116h18v26H81z" fill="#8b292f" stroke="#4d1d21" stroke-width="4"/>
  <path d="m90 118 5 8-5 12-5-12z" fill="#e2bd4b"/>
  <path d="M54 155q36 16 72 0" fill="none" stroke="#b18d38" stroke-width="5"/>
</svg>
