<svg xmlns="http://www.w3.org/2000/svg" viewBox="0 0 180 260">
  <path d="M60 96 77 89q13 19 26 0l17 7q12 4 21 20l7 20q2 9-7 13l-12 1-3 34q-36 15-72 0l-3-34-12-1q-9-4-7-13l7-20q9-16 21-20z" fill="#6b7d83" stroke="#293438" stroke-width="5" stroke-linejoin="round"/>
  <path d="M51 157q39 18 78 0l-4 35-24-7-11 13-11-13-24 7z" fill="#43545a" stroke="#293438" stroke-width="5"/>
  <path d="M77 91q13 19 26 0M90 105v48" fill="none" stroke="#d6c79c" stroke-width="4"/>
  <path d="M67 112h18v22H67z" fill="#c6b989" stroke="#403925" stroke-width="4"/>
  <path d="m70 117 12 12m0-12-12 12" stroke="#786d4b" stroke-width="3"/>
</svg>
